<svg width="32" height="32" viewBox="0 0 32 32" fill="none" xmlns="http://www.w3.org/2000/svg">
<path d="M26.0001 16.6666C26.0001 14.8266 27.4934 13.3333 29.3334 13.3333V11.9999C29.3334 6.66659 28.0001 5.33325 22.6667 5.33325H9.33341C4.00008 5.33325 2.66675 6.66659 2.66675 11.9999V12.6666C4.50675 12.6666 6.00008 14.1599 6.00008 15.9999C6.00008 17.8399 4.50675 19.3333 2.66675 19.3333V19.9999C2.66675 25.3333 4.00008 26.6666 9.33341 26.6666H22.6667C28.0001 26.6666 29.3334 25.3333 29.3334 19.9999C27.4934 19.9999 26.0001 18.5066 26.0001 16.6666Z" stroke="#ECECF9" stroke-width="1.5" stroke-linecap="round" stroke-linejoin="round"/>
<path d="M13.3333 5.33325L13.3333 26.6666" stroke="#ECECF9" stroke-width="1.5" stroke-linecap="round" stroke-linejoin="round" stroke-dasharray="5 5"/>
</svg>
