<svg width="16" height="16" viewBox="0 0 16 16" fill="none" xmlns="http://www.w3.org/2000/svg">
<path d="M13.5733 5.18667L3.02667 11.52C2.62 11.7667 2.07333 11.52 2.02 11.0467C2.00667 10.92 2 10.7933 2 10.6667V5.33333C2 3.33333 3.33333 2 5.33333 2H10.6667C12.6667 2 13.4867 3.02667 13.8733 4.43333C13.9533 4.72667 13.8267 5.03333 13.5733 5.18667Z" fill="#EA5455"/>
<path d="M13.9999 7.39338V10.6667C13.9999 12.6667 12.6666 14 10.6666 14H5.33327C4.71994 14 4.13994 13.8334 3.64661 13.54C3.21994 13.2934 3.24661 12.6667 3.66661 12.4134L12.9866 6.82005C13.4333 6.55338 13.9999 6.87338 13.9999 7.39338Z" fill="#EA5455"/>
</svg>
